<?xml version="1.0" standalone="no"?>
<!DOCTYPE svg PUBLIC "-//W3C//DTD SVG 20010904//EN"
 "http://www.w3.org/TR/2001/REC-SVG-20010904/DTD/svg10.dtd">
<svg version="1.0" xmlns="http://www.w3.org/2000/svg"
 width="700.000000pt" height="700.000000pt" viewBox="0 0 700.000000 700.000000"
 preserveAspectRatio="xMidYMid meet">
<metadata>
Created by potrace 1.11, written by Peter Selinger 2001-2013
</metadata>
<g transform="translate(0.000000,700.000000) scale(0.100000,-0.100000)"
fill="#000000" stroke="none">
<path d="M3310 6407 c-3 -3 -43 -8 -90 -11 -47 -3 -96 -8 -110 -10 -14 -3 -43
-7 -65 -10 -437 -63 -934 -274 -1296 -551 -176 -134 -397 -349 -522 -507 -350
-442 -563 -961 -624 -1523 -10 -93 -10 -490 0 -585 25 -241 100 -562 172 -735
70 -170 95 -226 147 -325 51 -97 174 -298 215 -350 180 -230 337 -400 483
-521 36 -30 67 -56 70 -59 13 -14 194 -141 265 -187 237 -150 544 -282 820
-352 133 -33 319 -67 435 -78 160 -16 566 -8 687 13 15 3 39 7 52 9 13 2 45 7
70 11 25 3 60 10 76 15 17 4 73 18 125 30 253 58 566 192 824 352 271 168 591
461 777 712 24 33 46 62 49 65 13 13 133 204 176 280 129 231 255 564 300 795
4 22 8 42 9 45 0 3 4 26 8 51 15 92 17 104 22 124 26 123 27 688 0 785 -2 8
-7 35 -10 60 -26 198 -113 500 -205 711 -97 220 -248 470 -399 659 -98 124
-331 356 -451 451 -268 213 -564 376 -870 481 -140 48 -327 97 -435 114 -21 3
-45 7 -54 9 -9 2 -41 6 -71 10 -30 3 -68 9 -85 11 -40 7 -490 16 -495 11z
m482 -1487 l-2 -910 37 0 c21 -1 242 -1 490 0 l453 0 -222 -442 c-122 -244
-222 -445 -223 -448 -1 -3 -27 -57 -60 -120 -99 -196 -269 -535 -270 -540 0
-3 -7 -16 -15 -30 -15 -26 -52 -101 -55 -110 0 -3 -18 -39 -40 -80 -21 -41
-150 -298 -286 -570 l-248 -495 0 908 c-1 718 -4 907 -13 908 -7 0 -235 1
-505 1 -271 -1 -493 3 -493 7 0 4 23 52 51 107 113 221 276 538 349 679 43 83
128 249 190 370 62 121 145 283 185 360 40 77 123 239 185 360 62 121 154 301
205 400 51 99 134 261 185 360 97 189 100 195 103 195 1 0 1 -409 -1 -910z"/>
</g>
</svg>
